<svg height="351" viewBox="0 0 300 351" width="300" xmlns="http://www.w3.org/2000/svg" xmlns:xlink="http://www.w3.org/1999/xlink"><linearGradient id="a" x1="50%" x2="50%" y1="0%" y2="100%"><stop offset="0" stop-color="#8f5e25"/><stop offset=".519613199" stop-color="#fbf4a1"/><stop offset="1" stop-color="#8f5e25"/></linearGradient><linearGradient id="b" x1="0%" x2="100%" y1="0%" y2="0%"><stop offset="0" stop-color="#8f5e25"/><stop offset=".5" stop-color="#fbf4a1"/><stop offset="1" stop-color="#8f5e25"/></linearGradient><linearGradient id="c" x1="38.406036%" x2="67.041743%" y1="0%" y2="101.875327%"><stop offset="0" stop-color="#f1cb67"/><stop offset=".490302666" stop-color="#be985b"/><stop offset="1" stop-color="#bfa756"/></linearGradient><g fill="none" fill-rule="evenodd"><rect fill="#232323" height="300" rx="150" width="300" y="51"/><g fill-rule="nonzero"><path d="m115.216797 236.585938v-19.150391l-42.9257814-17.199219 42.9257814-17.271484v-19.078125l-69.5195314 29.050781v14.669922zm27.677734 25.654296 34.6875-121.478515h-21.896484l-34.904297 121.478515zm40.251953-25.654296 69.519532-29.050782v-14.742187l-69.519532-28.90625v19.15039l42.925782 17.199219-42.925782 17.271484z" fill="url(#a)"/><path d="m152.333333 51h-9v54.666667h13.333334v-40.666667c72 3.6666667 129.666666 63 129.666666 136 0 75.333333-61.333333 136.333333-136.333333 136.333333s-136.3333333-61-136.3333333-136.333333c0-37.666667 15.3333333-71.666667 40-96.333333l-9.6666667-9.666667c-27.3333333 27-44 64.666667-44 106 0 83 67 150 150 150s150-67 150-150c0-82-66-148.6666667-147.666667-150z" fill="url(#b)"/><path d="m61.3225591 3.59567574c-.8887247 1.36861633-1.5337238 2.88112888-1.906306 4.47025668-1.98067 5.32372388-2.0328537 13.06375818-.1517431 19.55376078-1.8363679-1.2476318-2.6512718-.18723-2.9880776 1.5265667l-.0576811.3285898c-.0087239.0559065-.0170141.1123501-.0248872.1692803l-.0423653.3470161c-.0062708.0586746-.0121576.1177348-.0176771.1771301l-.0288404.3599889-.0208188.3656078-.0135931.3688028-.0085826.5538927.0009888.3661862.0145014.7140839.0334005.8333185.0529852.9881122c.4370008 8.5196803 2.6560234 16.5361649 6.3596314 24.0099743-1.5965106-.5921895-2.1773853.2176472-2.1367341 1.6370506l.0171498.3021075c.0042932.0517142.0092932.1040883.0149837.1570896l.0423006.3252764c.0167762.1107615.0361853.2237724.0580981.3387728l.0731202.3507095.0873666.3610866.1008372.369904c.0178857.0622988.0363004.1249001.0552278.1877712l.119589.380206.1311205.3851243.1418766.388483.1518568.3902821.1610614.3905216.1694905.3892013.1771438.3863216.1840215.381882.1901236.375883c3.8597676 7.4552667 8.9767273 13.7796781 15.7636307 18.3566825 6.0430021 4.0717891 12.7155496 5.3443524 19.4114236 4.0482443l-2.3323152-3.2705427-2.3105636-3.256647-1.5279074-2.1737056c-5.07608-7.2577685-9.9814346-14.6707938-14.6776569-23.2718302-1.1591188-2.1174499-2.2524112-4.2805152-3.2684705-6.4543191l-.5464862-1.1865666c-.0897816-.1978687-.1789078-.3957738-.2673699-.593689l-.5227365-1.1874032c-2.4016132-5.5398263-4.269214-11.0465143-5.4146775-15.9448467l-.2343347-1.0401214c-.8925782-4.1215625-1.244734-7.7659835-.9379981-10.571027 5.3335682 20.3236215 14.9932174 37.4901903 26.4748615 53.3302386l1.154145 1.5796508 1.1657352 1.5712142c.1952241.2611886.3909079.5220426.58704.7825705l1.182077 1.5593219 1.192276 1.5519022 1.2019186 1.5448892 1.2110047 1.5382831 1.2195345 1.5320837 1.227507 1.5262911 1.234924 1.5209053 1.241785 1.5159263 1.248088 1.5113541 1.882734 2.2593481 1.261413 1.5017031 1.900114 2.2467786 1.908036 2.2410673 2.553128 2.981579-.553952-3.8055149c-.120719-.6346783-.381103-1.2414954-.765645-1.7746523-.696252-.9843679-1.451006-1.9251485-2.214793-2.8594561l-1.146273-1.4012457c-.950568-1.1713913-1.876605-2.3616638-2.681498-3.6433061l-.49485-.800713-.278898-.4679467c-.043236-.0739887-.084877-.1460539-.124971-.216312l-.222354-.4007963c-.613531-1.1429283-.755146-1.7758764-.691132-2.5783307l.028589-.2746948.041628-.2928433.082099-.485527.099111-.5578187.035539-.2052668c.847172-5.0489712 1.496401-10.2097644 1.585515-15.3144052.212524-10.856613-2.630346-20.7179812-9.2016956-29.1037264l-.1747003-.2174595-.1836594-.2171905-.1917131-.215215-.1988617-.2115325-.2051048-.2061436c-.0346542-.0338134-.0695307-.0673311-.1046108-.1005176l-.2127724-.19486c-.0716377-.0634389-.1439388-.1252685-.2167524-.1852043l-.2198273-.1738419-.2219969-.1607727-.2232612-.145997-.2236203-.1295144c-1.3037385-.7041084-2.5795981-.4798105-3.0189751 2.1973596l-.1897834-.8050658-.3895156-1.7343185c-.0972035-.4207244-.1945089-.8144733-.3049616-1.196686l-.0855085-.2847377c-.1206977-.394807-.2428644-.7886922-.3667328-1.1815055l-.3769429-1.1750741c-2.5500896-7.810389-5.8739493-15.1319944-11.8335534-20.7641888l-.5469915-.5055834-.1992151-.1747074-.2102851-.17595496-.2200549-.17550417-.3455573-.25869594-.2387923-.16694702-.2440122-.16055209c-.0410315-.02613142-.0822263-.05192562-.1235574-.07734722l-.2494046-.14777533c-.0417677-.02378967-.0836175-.04713597-.1255223-.07000353l-.251872-.13117733-.251892-.1179891-.250612-.10310253c-1.4556419-.55470996-2.7795943-.26289936-2.8106632 2.39242682-.4391395-.6996289-.8541668-1.39380683-1.2581813-2.07743992l-.7972266-1.35169708c-.9220227-1.55705508-1.8316321-3.03821023-2.8952369-4.37875372-2.6879434-3.43796812-5.0643175-3.14198462-7.4549167.58624946z" fill="url(#c)"/></g></g></svg>