<?xml version="1.0" encoding="UTF-8"?>
<svg width="302px" height="351px" viewBox="0 0 302 351" version="1.1" xmlns="http://www.w3.org/2000/svg" xmlns:xlink="http://www.w3.org/1999/xlink">
    <title>JS</title>
    <defs>
        <linearGradient x1="38.4060362%" y1="0%" x2="67.0417428%" y2="101.875327%" id="linearGradient-1">
            <stop stop-color="#F1CB67" offset="0%"></stop>
            <stop stop-color="#BE985B" offset="49.0302666%"></stop>
            <stop stop-color="#BFA756" offset="100%"></stop>
        </linearGradient>
        <linearGradient x1="0%" y1="0%" x2="100%" y2="0%" id="linearGradient-2">
            <stop stop-color="#8F5E25" offset="0%"></stop>
            <stop stop-color="#FBF4A1" offset="50%"></stop>
            <stop stop-color="#8F5E25" offset="100%"></stop>
        </linearGradient>
        <linearGradient x1="0%" y1="0%" x2="100%" y2="0%" id="linearGradient-3">
            <stop stop-color="#8F5E25" offset="0%"></stop>
            <stop stop-color="#FBF4A1" offset="50%"></stop>
            <stop stop-color="#8F5E25" offset="100%"></stop>
        </linearGradient>
    </defs>
    <g id="Page-1" stroke="none" stroke-width="1" fill="none" fill-rule="evenodd">
        <g id="JS">
            <rect id="Rectangle" fill="#232323" x="1" y="51" width="300" height="300" rx="150"></rect>
            <path d="M62.3225591,3.59567574 C61.4338344,4.96429207 60.7888353,6.47680462 60.4162531,8.06593242 C58.4355831,13.3896563 58.3833994,21.1296906 60.26451,27.6196932 C58.4281421,26.3720614 57.6132382,27.4324632 57.2764324,29.1462599 L57.2187513,29.4748497 C57.2100274,29.5307562 57.2017372,29.5871998 57.1938641,29.64413 L57.1514988,29.9911461 C57.145228,30.0498207 57.1393412,30.1088809 57.1338217,30.1682762 L57.1049813,30.5282651 L57.0841625,30.8938729 L57.0705694,31.2626757 L57.0619868,31.8165684 L57.0629756,32.1827546 L57.077477,32.8968385 L57.1108775,33.730157 L57.1638627,34.7182692 C57.6008635,43.2379495 59.8198861,51.2544341 63.5234941,58.7282435 C61.9269835,58.136054 61.3461088,58.9458907 61.38676,60.3652941 L61.4039098,60.6674016 C61.408203,60.7191158 61.413203,60.7714899 61.4188935,60.8244912 L61.4611941,61.1497676 C61.4779703,61.2605291 61.4973794,61.37354 61.5192922,61.4885404 L61.5924124,61.8392499 L61.679779,62.2003365 L61.7806162,62.5702405 C61.7985019,62.6325393 61.8169166,62.6951406 61.835844,62.7580117 L61.955433,63.1382177 L62.0865535,63.523342 L62.2284301,63.911825 L62.3802869,64.3021071 L62.5413483,64.6926287 L62.7108388,65.08183 L62.8879826,65.4681516 L63.0720041,65.8500336 L63.2621277,66.2259166 C67.1218953,73.6811833 72.238855,80.0055947 79.0257584,84.5825991 C85.0687605,88.6543882 91.741308,89.9269515 98.437182,88.6308434 L96.1048668,85.3603007 L93.7943032,82.1036537 L92.2663958,79.9299481 C87.1903158,72.6721796 82.2849612,65.2591543 77.5887389,56.6581179 C76.4296201,54.540668 75.3363277,52.3776027 74.3202684,50.2037988 L73.7737822,49.0172322 C73.6840006,48.8193635 73.5948744,48.6214584 73.5064123,48.4235432 L72.9836758,47.23614 C70.5820626,41.6963137 68.7144618,36.1896257 67.5689983,31.2912933 L67.3346636,30.2511719 C66.4420854,26.1296094 66.0899296,22.4851884 66.3966655,19.6801449 C71.7302337,40.0037664 81.3898829,57.1703352 92.871527,73.0103835 L94.025672,74.5900343 L95.1914072,76.1612485 C95.3866313,76.4224371 95.5823151,76.6832911 95.7784472,76.943819 L96.9605242,78.5031409 L98.1528002,80.0550431 L99.3547188,81.5999323 L100.565724,83.1382154 L101.785258,84.6702991 L103.012765,86.1965902 L104.247689,87.7174955 L105.489474,89.2334218 L106.737562,90.7447759 L108.620296,93.004124 L109.881709,94.5058271 L111.781823,96.7526057 L113.689859,98.993673 L116.242987,101.975252 L115.689035,98.1697371 C115.568316,97.5350588 115.307932,96.9282417 114.92339,96.3950848 C114.227138,95.4107169 113.472384,94.4699363 112.708597,93.5356287 L111.562324,92.134383 C110.611756,90.9629917 109.685719,89.7727192 108.880826,88.4910769 L108.385976,87.6903639 L108.107078,87.2224172 C108.063842,87.1484285 108.022201,87.0763633 107.982107,87.0061052 L107.759753,86.6053089 C107.146222,85.4623806 107.004607,84.8294325 107.068621,84.0269782 L107.09721,83.7522834 L107.138838,83.4594401 L107.220937,82.9739131 L107.320048,82.4160944 L107.355587,82.2108276 C108.202759,77.1618564 108.851988,72.0010632 108.941102,66.8964224 C109.153626,56.0398094 106.310756,46.1784412 99.7394064,37.792696 L99.5647061,37.5752365 L99.3810467,37.358046 L99.1893336,37.142831 L98.9904719,36.9312985 L98.7853671,36.7251549 C98.7507129,36.6913415 98.7158364,36.6578238 98.6807563,36.6246373 L98.4679839,36.4297773 C98.3963462,36.3663384 98.3240451,36.3045088 98.2512315,36.244573 L98.0314042,36.0707311 L97.8094073,35.9099584 L97.5861461,35.7639614 L97.3625258,35.634447 C96.0587873,34.9303386 94.7829277,35.1546365 94.3435507,37.8318066 L94.1537673,37.0267408 L93.7642517,35.2924223 C93.6670482,34.8716979 93.5697428,34.477949 93.4592901,34.0957363 L93.3737816,33.8109986 C93.2530839,33.4161916 93.1309172,33.0223064 93.0070488,32.6294931 L92.6301059,31.454419 C90.0800163,23.64403 86.7561566,16.3224246 80.7965525,10.6902302 L80.249561,10.1846468 L80.0503459,10.0099394 L79.8400608,9.83398444 L79.6200059,9.65848027 L79.2744486,9.39978433 L79.0356563,9.23283731 L78.7916441,9.07228522 C78.7506126,9.0461538 78.7094178,9.0203596 78.6680867,8.994938 L78.4186821,8.84716267 C78.3769144,8.823373 78.3350646,8.8000267 78.2931598,8.77715914 L78.0412878,8.64598181 L77.7893958,8.52799271 L77.5387838,8.42489018 C76.0831419,7.87018022 74.7591895,8.16199082 74.7281206,10.817317 C74.2889811,10.1176881 73.8739538,9.42351017 73.4699393,8.73987708 L72.6727127,7.38818 C71.75069,5.83112492 70.8410806,4.34996977 69.7774758,3.00942628 C67.0895324,-0.428541842 64.7131583,-0.132558343 62.3225591,3.59567574 Z" id="Path" fill="url(#linearGradient-1)" fill-rule="nonzero"></path>
            <g id="js" transform="translate(0.103723, 51.000000)" fill-rule="nonzero">
                <path d="M99.9966823,149.235729 L99.9966823,136.434461 C99.9966823,133.508457 99.9966823,101.139535 99.4459723,93.641649 C98.3445525,89.6183932 97.6102725,87.4238901 91.3688932,87.4238901 L85.1275139,87.4238901 C84.393234,87.4238901 83.8425241,87.2410148 83.8425241,86.5095137 L83.8425241,81.2061311 C83.8425241,80.2917548 84.026094,79.9260042 85.1275139,79.9260042 C87.1467837,79.9260042 93.9388729,80.47463 114.131571,80.47463 C132.121429,80.47463 138.546378,79.9260042 141.299928,79.9260042 C142.401348,79.9260042 142.768488,80.2917548 142.768488,81.3890063 L142.768488,85.9608879 C142.768488,87.0581395 142.401348,87.4238901 141.299928,87.4238901 L134.874978,87.4238901 C129.918589,87.4238901 128.266459,88.8868922 128.082889,92.3615222 C127.899319,95.2875264 127.532179,118.69556 127.532179,140.823467 L127.532179,149.235729 C127.532179,172.460888 126.797899,190.382664 126.797899,194.588795 C126.797899,204.281184 125.512909,212.14482 119.4551,222.385835 C111.194451,236.284355 95.9581427,250 74.6640251,250 C69.7076356,250 60.8962766,246.708245 60.8962766,236.832981 C60.8962766,230.615222 65.4855261,225.128964 71.9104754,225.128964 C81.0889744,225.128964 85.1275139,232.62685 88.4317736,239.94186 C92.2867431,239.94186 96.3252827,235.552854 98.1609825,228.969345 C102.015952,215.61945 99.9966823,162.585624 99.9966823,149.235729 Z M160.207636,169.169133 L164.980455,169.534884 C165.714735,169.534884 166.265445,169.717759 166.265445,170.997886 C166.632585,176.667019 169.202565,184.530655 173.608244,191.662791 C178.931774,200.075053 187.926703,204.098309 196.738062,204.098309 C205.549421,204.098309 219.684309,198.2463 219.684309,183.799154 C219.684309,168.620507 216.747189,164.231501 192.883092,155.270613 C187.375993,153.258985 175.627514,147.406977 166.265445,139.360465 C159.840496,133.691332 157.086946,123.998943 157.086946,113.392178 C157.086946,102.236786 159.840496,94.7389006 170.854694,86.5095137 C179.115344,80.2917548 186.091003,77.7315011 197.288772,77.7315011 C210.68938,77.7315011 217.848609,79.9260042 221.703579,81.3890063 C223.539279,82.1205074 224.824268,81.7547569 225.925688,80.47463 L228.312098,78.0972516 C229.046378,77.3657505 229.964228,77 231.065648,77 C232.350638,77 232.717778,79.0116279 232.901348,80.1088795 L235.838467,111.38055 C235.838467,112.112051 235.471327,112.294926 234.920617,112.477801 L230.882078,113.757928 C229.964228,114.123679 229.046378,113.757928 228.495668,112.477801 C226.476398,107.174419 223.355709,100.042283 217.114329,93.4587738 C212.52508,88.3382664 207.01798,85.7780127 198.757331,85.7780127 C184.989583,85.7780127 179.298914,97.6649049 179.298914,102.419662 C179.298914,109.186047 179.482483,114.672304 184.071733,119.244186 C188.844552,124.181818 199.308041,128.570825 208.30297,131.131078 C217.114329,133.691332 224.273559,138.263214 231.799928,145.029598 C238.959157,151.430233 241.896277,159.476744 241.896277,172.278013 C241.896277,194.588795 225.925688,212.693446 201.694451,212.693446 C185.173153,212.693446 176.545364,209.950317 168.835425,204.82981 C166.632585,203.366808 165.531165,202.818182 164.613315,202.818182 C163.511895,202.818182 162.777615,204.098309 161.676195,205.927061 C160.574776,207.938689 159.656926,208.121564 158.371936,208.121564 C156.352666,208.121564 155.618386,207.207188 155.801956,205.19556 L158.739076,170.44926 C158.922646,169.169133 159.473356,169.169133 160.207636,169.169133 Z" id="Shape" fill="url(#linearGradient-2)"></path>
                <path d="M153.22961,0 L144.22961,0 L144.22961,54.6666667 L157.562943,54.6666667 L157.562943,14 C229.562943,17.6666667 287.22961,77 287.22961,150 C287.22961,225.333333 225.896277,286.333333 150.896277,286.333333 C75.8962766,286.333333 14.5629433,225.333333 14.5629433,150 C14.5629433,112.333333 29.8962766,78.3333333 54.5629433,53.6666667 L44.8962766,44 C17.5629433,71 0.896276596,108.666667 0.896276596,150 C0.896276596,233 67.8962766,300 150.896277,300 C233.896277,300 300.896277,233 300.896277,150 C300.896277,68 234.896277,1.33333333 153.22961,0 Z" id="Path" fill="url(#linearGradient-3)"></path>
            </g>
        </g>
    </g>
</svg>