<svg height="210" viewBox="0 0 210 210" width="210" xmlns="http://www.w3.org/2000/svg" xmlns:xlink="http://www.w3.org/1999/xlink"><filter id="a" height="112.5%" width="112.5%" x="-6.2%" y="-6.2%"><feOffset dx="0" dy="2" in="SourceAlpha" result="shadowOffsetOuter1"/><feGaussianBlur in="shadowOffsetOuter1" result="shadowBlurOuter1" stdDeviation="2"/><feColorMatrix in="shadowBlurOuter1" result="shadowMatrixOuter1" type="matrix" values="0 0 0 0 0   0 0 0 0 0   0 0 0 0 0  0 0 0 0.5 0"/><feMerge><feMergeNode in="shadowMatrixOuter1"/><feMergeNode in="SourceGraphic"/></feMerge></filter><filter id="b" height="108.3%" width="109.7%" x="-4.9%" y="-4.1%"><feOffset dx="0" dy="0" in="SourceAlpha" result="shadowOffsetOuter1"/><feGaussianBlur in="shadowOffsetOuter1" result="shadowBlurOuter1" stdDeviation="1.5"/><feColorMatrix in="shadowBlurOuter1" result="shadowMatrixOuter1" type="matrix" values="0 0 0 0 0   0 0 0 0 0   0 0 0 0 0  0 0 0 1 0"/><feMerge><feMergeNode in="shadowMatrixOuter1"/><feMergeNode in="SourceGraphic"/></feMerge></filter><linearGradient id="c" x1="50%" x2="50%" y1="0%" y2="100%"><stop offset="0" stop-color="#8f5e25"/><stop offset=".519613199" stop-color="#fbf4a1"/><stop offset="1" stop-color="#8f5e25"/></linearGradient><linearGradient id="d" x1="0%" x2="100%" y1="0%" y2="0%"><stop offset="0" stop-color="#8f5e25"/><stop offset=".5" stop-color="#fbf4a1"/><stop offset="1" stop-color="#8f5e25"/></linearGradient><linearGradient id="e" x1="38.152321%" x2="67.414674%" y1="0%" y2="101.875327%"><stop offset="0" stop-color="#f1cb67"/><stop offset=".490302666" stop-color="#be985b"/><stop offset="1" stop-color="#bfa756"/></linearGradient><g fill="none" fill-rule="evenodd" filter="url(#a)" transform="translate(9 9)"><rect fill="#fff" height="192" rx="30" width="192"/><g filter="url(#b)" transform="translate(29.25 17.52)"><rect fill="#232323" height="134.25" rx="66.75" width="133.5" y="22.23"/><g fill-rule="nonzero"><path d="m51.2362081 105.167686v-8.6310233l-19.1328561-7.7516359 19.1328561-7.7842059v-8.5984533l-30.9862081 13.0930994v6.6116895zm12.3365049 11.562314 15.4608938-54.75h-9.7596892l-15.5575244 54.75zm17.9410789-11.562314 30.9862081-13.0930994v-6.6442594l-30.9862081-13.0279596v8.6310232l19.1328561 7.751636-19.1328561 7.7842058z" fill="url(#c)"/><path d="m67.7883333 22.23h-4.005v24.4633333h5.9333334v-18.1983333c32.0400003 1.6408333 57.7016663 28.1925 57.7016663 60.86 0 33.711667-27.293333 61.009167-60.668333 61.009167s-60.66833333-27.2975-60.66833333-61.009167c0-16.8558333 6.82333333-32.0708333 17.80000003-43.1091667l-4.3016667-4.3258333c-12.16333333 12.0825-19.58 28.9383333-19.58 47.435 0 37.1425 29.815 67.125 66.75 67.125s66.75-29.9825 66.75-67.125c0-36.695-29.37-66.5283333-65.7116667-67.125z" fill="url(#d)"/><path d="m27.1500178 1.82971673c-.4054607.61767854-.699727 1.30029975-.8697092 2.01749866-.9036362 2.40268213-.9274438 5.89588395-.0692294 8.82492641-.8378015-.5630763-1.2095831-.0844999-1.3632432.6889641l-.0263157.1482979c-.0039801.0252315-.0077623.0507053-.0113542.0763988l-.0193282.156614c-.002861.0264808-.0055467.0531356-.0080648.0799416l-.0131578.1624689-.0094981.1650046-.0062016.1664466-.0039156.2499807.0004511.1652657.006616.3222776.0152382.37609.0241733.4459509c.1993718 3.8450686 1.2117509 7.4630369 2.9014387 10.8360872-.728372-.2672646-.993383.0982277-.9748368.7388272l.0078242.136346c.0019587.0233394.0042398.0469767.006836.0708971l.0192987.1468024c.0076537.0499885.0165087.1009921.0265059.1528936l.0333595.1582808.039859.1629642.0460047.1669437c.00816.0281164.0165612.0563694.0251965.0847441l.0545597.1715931.0598208.1738128.064728.1753286.0692813.1761406.0734806.1762486.0773262.1756529.0808179.1743531.0839557.1723495.0867396.169642c1.7609321 3.3646817 4.0954298 6.2189902 7.1918019 8.2846658 2.7569837 1.8376638 5.8011833 2.4119921 8.8560252 1.8270377l-1.0640663-1.4760485-1.0541427-1.4697771-.6970733-.9810283c-2.3158474-3.2755475-4.553805-6.6211649-6.6963508-10.5029508-.5288219-.9556392-1.0276119-1.9318654-1.4911661-2.912938l-.249322-.5355165c-.0409609-.0893014-.0816227-.1786191-.1219816-.2679414l-.2384867-.5358942c-1.095682-2.5002126-1.9477328-4.9854694-2.4703248-7.1961655l-.1069099-.4694235c-.4072187-1.8601274-.5678819-3.5049131-.4279406-4.77087429 2.4333205 9.17237689 6.8403182 16.91992529 12.0785599 24.06879349l.5265527.7129219.5318405.7091142c.0890666.1178786.1783429.2356062.2678238.3531866l.539296.703747.5439491.7003984.5483483.6972333.5524937.6942519.5563851.691454.5600226.6888397.5634064.686409.5665362.6841619.5694121.6820984.8589552 1.0196801.5754913.6777427.866884 1.0140073.8704988 1.0114297 1.1648072 1.3456343-.2527281-1.7174898c-.0550756-.2864405-.1738698-.5603068-.3493084-.8009291-.3176496-.4442611-.6619889-.8688505-1.0104496-1.2905185l-.5229612-.6324047c-.4336752-.5286677-.856159-1.0658568-1.2233731-1.6442826l-.2257642-.3613747-.1272412-.2111918c-.0197251-.0333923-.0387232-.0659165-.0570151-.0976251l-.101444-.1808858c-.2799098-.5158219-.3445183-.8014815-.3153133-1.163642l.0130429-.1239742.0189922-.1321649.0374558-.2191261.0452172-.2517526.0162138-.0926402c.3865032-2.2786818.682699-4.6078307.7233553-6.9116371.0969592-4.8997639-1.2000361-9.3503578-4.1980665-13.1349794l-.0797031-.0981429-.0837905-.0980216-.0874648-.09713-.0907261-.095468-.0935745-.0930359c-.0158102-.0152605-.0317218-.0303876-.0477263-.0453652l-.0970726-.0879435c-.0326831-.028631-.0656689-.0565357-.0988884-.0835857l-.1002913-.0784576-.1012811-.0725593-.1018579-.0658908-.1020217-.0584519c-.5948014-.3177755-1.1768836-.2165462-1.3773395.9917036l-.0865844-.3633391-.1777077-.7827258c-.0443469-.1898796-.0887403-.3675849-.1391319-.5400836l-.0390113-.1285067c-.0550656-.1781827-.1108014-.3559494-.1673136-.5332324l-.1719717-.5303298c-1.163421-3.5249541-2.6798572-6.82931221-5.3987925-9.37121207l-.2495526-.22817788-.0908874-.07884827-.0959378-.0794113-.1003951-.07920785-.1576528-.11675364-.1089436-.07534587-.1113251-.07245974c-.0187196-.01179353-.0375139-.02343487-.0563702-.03490804l-.1137853-.06669338c-.0190555-.01073666-.0381486-.02127322-.0572667-.03159372l-.1149109-.05920244-.1149201-.05325037-.1143361-.04653183c-.6641038-.25034952-1.2681273-.11865071-1.2823018 1.07974066-.2003475-.31575375-.3896944-.62904742-.5740169-.93758202l-.3637167-.6100426c-.4206521-.70272398-.835641-1.3711931-1.3208867-1.97620191-1.2263137-1.55161025-2.3104809-1.41802815-3.401138.2645838z" fill="url(#e)"/></g></g></g></svg>